{
    "asset" : {
        "generator" : "Khronos glTF Blender I/O v1.7.33",
        "version" : "2.0"
    },
    "scene" : 0,
    "scenes" : [
        {
            "name" : "Scene",
            "nodes" : [
                10
            ]
        }
    ],
    "nodes" : [
        {
            "mesh" : 0,
            "name" : "Object_10"
        },
        {
            "mesh" : 1,
            "name" : "Object_12"
        },
        {
            "mesh" : 2,
            "name" : "Object_13"
        },
        {
            "mesh" : 3,
            "name" : "Object_17"
        },
        {
            "name" : "Object_18"
        },
        {
            "mesh" : 4,
            "name" : "Object_20"
        },
        {
            "mesh" : 5,
            "name" : "Object_5"
        },
        {
            "mesh" : 6,
            "name" : "Object_9"
        },
        {
            "children" : [
                0,
                1,
                2,
                3,
                4,
                5,
                6,
                7
            ],
            "name" : "/sketchfab-data/processing/0d67e35cc32341c0bb857095f04e7b21/pre"
        },
        {
            "children" : [
                8
            ],
            "name" : "zbrush_concat.osgb.cleaner.gles",
            "translation" : [
                -0.938409149646759,
                -0.5633843541145325,
                -3.4121832847595215
            ]
        },
        {
            "children" : [
                9
            ],
            "name" : "Sketchfab_model",
            "rotation" : [
                -0.7071068286895752,
                0,
                0,
                0.7071068286895752
            ]
        }
    ],
    "materials" : [
        {
            "doubleSided" : true,
            "name" : "material_0",
            "pbrMetallicRoughness" : {
                "baseColorFactor" : [
                    0.6592411994934082,
                    0.634049117565155,
                    0.5204560160636902,
                    1
                ],
                "metallicFactor" : 0.10000000149011612,
                "roughnessFactor" : 0.7300000190734863
            }
        }
    ],
    "meshes" : [
        {
            "name" : "Object_7",
            "primitives" : [
                {
                    "attributes" : {
                        "POSITION" : 0
                    },
                    "indices" : 1,
                    "material" : 0
                }
            ]
        },
        {
            "name" : "Object_9",
            "primitives" : [
                {
                    "attributes" : {
                        "POSITION" : 2
                    },
                    "indices" : 3,
                    "material" : 0
                }
            ]
        },
        {
            "name" : "Object_10",
            "primitives" : [
                {
                    "attributes" : {
                        "POSITION" : 4
                    },
                    "indices" : 5,
                    "material" : 0
                }
            ]
        },
        {
            "name" : "Object_14",
            "primitives" : [
                {
                    "attributes" : {
                        "POSITION" : 6
                    },
                    "indices" : 7,
                    "material" : 0
                }
            ]
        },
        {
            "name" : "Object_17",
            "primitives" : [
                {
                    "attributes" : {
                        "POSITION" : 8
                    },
                    "indices" : 9,
                    "material" : 0
                }
            ]
        },
        {
            "name" : "Object_2",
            "primitives" : [
                {
                    "attributes" : {
                        "POSITION" : 10
                    },
                    "indices" : 11,
                    "material" : 0
                }
            ]
        },
        {
            "name" : "Object_6",
            "primitives" : [
                {
                    "attributes" : {
                        "POSITION" : 12
                    },
                    "indices" : 13,
                    "material" : 0
                }
            ]
        }
    ],
    "accessors" : [
        {
            "bufferView" : 0,
            "componentType" : 5126,
            "count" : 2473,
            "max" : [
                1.838507890701294,
                0.7686343789100647,
                4.333311557769775
            ],
            "min" : [
                0.03850454092025757,
                0.5754677057266235,
                3.227926731109619
            ],
            "type" : "VEC3"
        },
        {
            "bufferView" : 1,
            "componentType" : 5123,
            "count" : 14640,
            "type" : "SCALAR"
        },
        {
            "bufferView" : 2,
            "componentType" : 5126,
            "count" : 2398,
            "max" : [
                1.4674766063690186,
                1.0358102321624756,
                4.143570423126221
            ],
            "min" : [
                0.40975505113601685,
                0.3068057596683502,
                3.315584182739258
            ],
            "type" : "VEC3"
        },
        {
            "bufferView" : 3,
            "componentType" : 5123,
            "count" : 14412,
            "type" : "SCALAR"
        },
        {
            "bufferView" : 4,
            "componentType" : 5126,
            "count" : 1660,
            "max" : [
                1.5216412544250488,
                0.7996335029602051,
                3.691641092300415
            ],
            "min" : [
                0.35508936643600464,
                0.481036514043808,
                1.7759907245635986
            ],
            "type" : "VEC3"
        },
        {
            "bufferView" : 5,
            "componentType" : 5123,
            "count" : 9936,
            "type" : "SCALAR"
        },
        {
            "bufferView" : 6,
            "componentType" : 5126,
            "count" : 6018,
            "max" : [
                1.8357042074203491,
                0.7929825186729431,
                3.2540485858917236
            ],
            "min" : [
                0.041515570133924484,
                0.4154819846153259,
                2.5931320190429688
            ],
            "type" : "VEC3"
        },
        {
            "bufferView" : 7,
            "componentType" : 5123,
            "count" : 36084,
            "type" : "SCALAR"
        },
        {
            "bufferView" : 8,
            "componentType" : 5126,
            "count" : 649,
            "max" : [
                1.334483027458191,
                0.5928692817687988,
                1.9238923788070679
            ],
            "min" : [
                0.54248046875,
                0.4795227348804474,
                1.7081979513168335
            ],
            "type" : "VEC3"
        },
        {
            "bufferView" : 9,
            "componentType" : 5123,
            "count" : 3852,
            "type" : "SCALAR"
        },
        {
            "bufferView" : 10,
            "componentType" : 5126,
            "count" : 13494,
            "max" : [
                1.1262229681015015,
                1.0586103200912476,
                6.248369216918945
            ],
            "min" : [
                0.752926230430603,
                0.46829161047935486,
                3.942467212677002
            ],
            "type" : "VEC3"
        },
        {
            "bufferView" : 11,
            "componentType" : 5123,
            "count" : 81300,
            "type" : "SCALAR"
        },
        {
            "bufferView" : 12,
            "componentType" : 5126,
            "count" : 1610,
            "max" : [
                1.872965931892395,
                0.7546646595001221,
                5.661927223205566
            ],
            "min" : [
                0.004096808843314648,
                0.5177745819091797,
                4.166690349578857
            ],
            "type" : "VEC3"
        },
        {
            "bufferView" : 13,
            "componentType" : 5123,
            "count" : 9636,
            "type" : "SCALAR"
        }
    ],
    "bufferViews" : [
        {
            "buffer" : 0,
            "byteLength" : 29676,
            "byteOffset" : 0
        },
        {
            "buffer" : 0,
            "byteLength" : 29280,
            "byteOffset" : 29676
        },
        {
            "buffer" : 0,
            "byteLength" : 28776,
            "byteOffset" : 58956
        },
        {
            "buffer" : 0,
            "byteLength" : 28824,
            "byteOffset" : 87732
        },
        {
            "buffer" : 0,
            "byteLength" : 19920,
            "byteOffset" : 116556
        },
        {
            "buffer" : 0,
            "byteLength" : 19872,
            "byteOffset" : 136476
        },
        {
            "buffer" : 0,
            "byteLength" : 72216,
            "byteOffset" : 156348
        },
        {
            "buffer" : 0,
            "byteLength" : 72168,
            "byteOffset" : 228564
        },
        {
            "buffer" : 0,
            "byteLength" : 7788,
            "byteOffset" : 300732
        },
        {
            "buffer" : 0,
            "byteLength" : 7704,
            "byteOffset" : 308520
        },
        {
            "buffer" : 0,
            "byteLength" : 161928,
            "byteOffset" : 316224
        },
        {
            "buffer" : 0,
            "byteLength" : 162600,
            "byteOffset" : 478152
        },
        {
            "buffer" : 0,
            "byteLength" : 19320,
            "byteOffset" : 640752
        },
        {
            "buffer" : 0,
            "byteLength" : 19272,
            "byteOffset" : 660072
        }
    ],
    "buffers" : [
        {
            "byteLength" : 679344,
            "uri" : "data:application/octet-stream;base64,"
        }
    ]
}
