{
    "asset" : {
        "generator" : "Khronos glTF Blender I/O v1.7.33",
        "version" : "2.0"
    },
    "scene" : 0,
    "scenes" : [
        {
            "name" : "Scene",
            "nodes" : [
                3
            ]
        }
    ],
    "nodes" : [
        {
            "mesh" : 0,
            "name" : "Object_5"
        },
        {
            "children" : [
                0
            ],
            "name" : "/sketchfab-data/processing/0d67e35cc32341c0bb857095f04e7b21/pre"
        },
        {
            "children" : [
                1
            ],
            "name" : "zbrush_concat.osgb.cleaner.gles",
            "translation" : [
                -0.938409149646759,
                -0.5633843541145325,
                -3.4121832847595215
            ]
        },
        {
            "children" : [
                2
            ],
            "name" : "Sketchfab_model",
            "rotation" : [
                -0.7071068286895752,
                0,
                0,
                0.7071068286895752
            ]
        }
    ],
    "materials" : [
        {
            "doubleSided" : true,
            "name" : "material_0.001",
            "pbrMetallicRoughness" : {
                "baseColorFactor" : [
                    0.6592411994934082,
                    0.634049117565155,
                    0.5204560160636902,
                    1
                ],
                "metallicFactor" : 0.10000000149011612,
                "roughnessFactor" : 0.7300000190734863
            }
        }
    ],
    "meshes" : [
        {
            "name" : "Object_2.001",
            "primitives" : [
                {
                    "attributes" : {
                        "POSITION" : 0
                    },
                    "indices" : 1,
                    "material" : 0
                }
            ]
        }
    ],
    "accessors" : [
        {
            "bufferView" : 0,
            "componentType" : 5126,
            "count" : 7371,
            "max" : [
                1.8778622150421143,
                1.0644692182540894,
                6.257380485534668
            ],
            "min" : [
                -0.0001147398870671168,
                0.29241251945495605,
                1.7715188264846802
            ],
            "type" : "VEC3"
        },
        {
            "bufferView" : 1,
            "componentType" : 5123,
            "count" : 39135,
            "type" : "SCALAR"
        }
    ],
    "bufferViews" : [
        {
            "buffer" : 0,
            "byteLength" : 88452,
            "byteOffset" : 0
        },
        {
            "buffer" : 0,
            "byteLength" : 78270,
            "byteOffset" : 88452
        }
    ],
    "buffers" : [
        {
            "byteLength" : 166724,
            "uri" : "data:application/octet-stream;base64,"
        }
    ]
}
